<?xml version="1.0" encoding="utf-8"?>
<!-- Generator: Adobe Illustrator 14.0.0, SVG Export Plug-In . SVG Version: 6.00 Build 43363)  -->
<!DOCTYPE svg PUBLIC "-//W3C//DTD SVG 1.1//EN" "http://www.w3.org/Graphics/SVG/1.1/DTD/svg11.dtd">
<svg version="1.1" id="Layer_1" xmlns="http://www.w3.org/2000/svg" xmlns:xlink="http://www.w3.org/1999/xlink" x="0px" y="0px"
	 width="800px" height="600px" viewBox="0 0 800 600" enable-background="new 0 0 800 600" xml:space="preserve">
<ellipse fill="#FFFFFF" stroke="#000000" cx="383.401" cy="197.306" rx="55.782" ry="50.68"/>
<ellipse fill="#FFFFFF" stroke="#000000" cx="389.524" cy="318.138" rx="57.143" ry="70.151"/>
<path fill="none" stroke="#000000" d="M357.551,212.612c5.799,9.829,22.637,18.437,33.979,17.687
	c12.178-0.805,12.497-14.373,20.443-21.769"/>
<line fill="none" stroke="#000000" x1="360.953" y1="170.436" x2="365.714" y2="190.844"/>
<line fill="none" stroke="#000000" x1="394.286" y1="170.436" x2="400" y2="194.245"/>
<line fill="none" stroke="#000000" x1="360.953" y1="378.902" x2="315.374" y2="445.945"/>
<line fill="none" stroke="#000000" x1="418.097" y1="378.902" x2="466.395" y2="464.313"/>
<line fill="none" stroke="#000000" x1="434.896" y1="275.495" x2="498.367" y2="188.123"/>
<line fill="none" stroke="#000000" x1="471.156" y1="161.592" x2="531.021" y2="219.438"/>
<line fill="none" stroke="#000000" x1="471.156" y1="161.592" x2="491.564" y2="142.544"/>
<line fill="none" stroke="#000000" x1="491.564" y1="142.544" x2="552.789" y2="200.367"/>
<line fill="none" stroke="#000000" x1="552.789" y1="200.367" x2="531.021" y2="219.438"/>
<line fill="none" stroke="#000000" x1="479.407" y1="214.222" x2="484.762" y2="216.694"/>
<line fill="none" stroke="#000000" x1="484.762" y1="216.694" x2="504.949" y2="194.245"/>
<line fill="none" stroke="#000000" x1="484.762" y1="208.531" x2="491.564" y2="214.222"/>
<line fill="none" stroke="#000000" x1="489.473" y1="200.367" x2="498.367" y2="208.531"/>
</svg>
