<?xml version="1.0" encoding="utf-8"?>
<!-- Generator: Adobe Illustrator 14.0.0, SVG Export Plug-In . SVG Version: 6.00 Build 43363)  -->
<!DOCTYPE svg PUBLIC "-//W3C//DTD SVG 1.1//EN" "http://www.w3.org/Graphics/SVG/1.1/DTD/svg11.dtd">
<svg version="1.1" id="Layer_1" xmlns="http://www.w3.org/2000/svg" xmlns:xlink="http://www.w3.org/1999/xlink" x="0px" y="0px"
	 width="800px" height="600px" viewBox="0 0 800 600" enable-background="new 0 0 800 600" xml:space="preserve">
<g id="XMLID_3_">
	<g>
		<rect x="360.95" y="172.8" fill="#808080" width="142.859" height="151.021"/>
	</g>
	<g>
		<rect x="360.95" y="172.8" fill="none" stroke="#000000" width="142.859" height="151.021"/>
	</g>
</g>
<g id="XMLID_2_">
	<g>
		<polygon fill="#999999" points="616.73,323.82 616.73,457.83 252.79,457.83 252.79,323.82 290.2,323.82 314.01,323.82 
			354.15,323.82 383.4,323.82 416.73,323.82 514.69,323.82 548.03,323.82 577.28,323.82 		"/>
		<rect x="577.28" y="291.84" fill="#999999" width="39.45" height="31.98"/>
		<rect x="514.69" y="291.84" fill="#999999" width="33.34" height="31.98"/>
		<rect x="383.4" y="291.84" fill="#999999" width="33.331" height="31.98"/>
		<rect x="314.01" y="291.84" fill="#999999" width="40.14" height="31.98"/>
		<rect x="252.79" y="291.84" fill="#999999" width="37.41" height="31.98"/>
	</g>
	<g>
		<line fill="none" stroke="#000000" x1="548.03" y1="323.82" x2="577.28" y2="323.82"/>
		<line fill="none" stroke="#000000" x1="416.73" y1="323.82" x2="514.69" y2="323.82"/>
		<line fill="none" stroke="#000000" x1="354.15" y1="323.82" x2="383.4" y2="323.82"/>
		<line fill="none" stroke="#000000" x1="290.2" y1="323.82" x2="314.01" y2="323.82"/>
		<polyline fill="none" stroke="#000000" points="616.73,323.82 616.73,457.83 252.79,457.83 252.79,323.82 		"/>
		<rect x="252.79" y="291.84" fill="none" stroke="#000000" width="37.41" height="31.98"/>
		<rect x="314.01" y="291.84" fill="none" stroke="#000000" width="40.14" height="31.98"/>
		<rect x="514.69" y="291.84" fill="none" stroke="#000000" width="33.34" height="31.98"/>
		<rect x="577.28" y="291.84" fill="none" stroke="#000000" width="39.45" height="31.98"/>
		<rect x="383.4" y="291.84" fill="none" stroke="#000000" width="33.331" height="31.98"/>
	</g>
</g>
<g id="XMLID_1_">
	<g>
		<rect x="450.07" y="291.84" fill="#999999" width="32.649" height="31.98"/>
	</g>
	<g>
		<rect x="450.07" y="291.84" fill="none" stroke="#000000" width="32.649" height="31.98"/>
	</g>
</g>
<g id="XMLID_4_">
	<g>
		<polygon fill="#FCEE21" points="503.81,172.8 360.95,172.8 432.38,122.8 		"/>
	</g>
	<g>
		<polygon fill="none" stroke="#000000" points="360.95,172.8 432.38,122.8 503.81,172.8 		"/>
	</g>
</g>
<g id="XMLID_6_">
	<g>
		<rect x="383.4" y="395.92" fill="#754C24" width="99.32" height="59.19"/>
	</g>
	<g>
		<rect x="383.4" y="395.92" fill="none" stroke="#000000" width="99.32" height="59.19"/>
	</g>
</g>
<g id="XMLID_5_">
	<g>
		<path fill="#754C24" d="M433.06,355.79c27.431,0,49.66,22.229,49.66,49.66c0,27.43-22.229,49.66-49.66,49.66
			c-27.43,0-49.66-22.23-49.66-49.66C383.4,378.02,405.63,355.79,433.06,355.79z"/>
	</g>
	<g>
		<path fill="none" stroke="#000000" d="M482.72,405.45c0-27.431-22.229-49.66-49.66-49.66c-27.43,0-49.66,22.229-49.66,49.66
			c0,27.43,22.23,49.66,49.66,49.66C460.49,455.11,482.72,432.88,482.72,405.45z"/>
	</g>
</g>
<g>
	<g>
		<path fill="#754C24" d="M390.745,435.381c-0.151,4.177,0.052,10.145,4.855,11.652c4.522,1.419,9.66-3.12,12.671-5.829
			c1.441-1.296-0.688-3.411-2.121-2.121c-2.394,2.153-5.475,4.897-8.865,5.137c-3.987,0.281-3.628-6.42-3.541-8.839
			C393.815,433.445,390.815,433.452,390.745,435.381L390.745,435.381z"/>
	</g>
</g>
<g>
	<g>
		<path fill="#754C24" d="M401.089,443.004c1.935,0,1.935-3,0-3S399.154,443.004,401.089,443.004L401.089,443.004z"/>
	</g>
</g>
<g>
	<g>
		<path fill="#754C24" d="M388.844,436.16c4.514,0,4.514-7,0-7S384.33,436.16,388.844,436.16L388.844,436.16z"/>
	</g>
</g>
<g>
	<g>
		<path fill="#754C24" d="M393.704,428.578c0.037-4.615,0.848-9.934-1.838-14.012c-2.471-3.751-8.535-0.249-6.044,3.533
			c1.861,2.826,0.908,7.279,0.882,10.479C386.668,433.094,393.668,433.09,393.704,428.578L393.704,428.578z"/>
	</g>
</g>
<g>
	<g>
		<path fill="#754C24" d="M387.483,423.234c4.514,0,4.514-7,0-7S382.969,423.234,387.483,423.234L387.483,423.234z"/>
	</g>
</g>
<g>
	<g>
		<path fill="#754C24" d="M389.958,435.931c0.999,2.942,2.566,6.292,5.608,7.592c1.755,0.749,3.736,0.541,4.789-1.256
			c0.873-1.489,0.5-4.039-1.255-4.789c-0.18-0.069-0.354-0.15-0.521-0.245c-0.796-0.409,0.458,0.462-0.216-0.137
			c-0.143-0.134-0.278-0.275-0.407-0.422c0.518,0.564-0.088-0.139-0.164-0.253c-0.276-0.421-0.499-0.875-0.714-1.329
			c-0.422-0.893,0.248,0.649-0.096-0.246c-0.099-0.256-0.186-0.517-0.274-0.776c-0.612-1.805-2.384-2.973-4.306-2.444
			C390.646,432.108,389.345,434.123,389.958,435.931L389.958,435.931z"/>
	</g>
</g>
<g>
	<g>
		<path fill="#754C24" d="M388.333,419.667c4.514,0,4.514-7,0-7S383.819,419.667,388.333,419.667L388.333,419.667z"/>
	</g>
</g>
<g>
	<g>
		<path fill="#754C24" d="M384.833,416.833c-0.096,2.696,0.633,5.34,1.292,7.931c0.47,1.848,2.494,2.942,4.306,2.444
			c2.014-0.554,2.711-2.418,2.444-4.306c-0.284-2.008-0.832-4.238-1.709-6.064c-0.109-0.232-0.2-0.472-0.272-0.719
			c-0.087,0.273-0.173,0.547-0.26,0.82c0.227-0.403,0.418-0.822,0.575-1.259c0.425-1.078,0.393-2.2,0-3.278
			c-1.531-4.206-8.297-2.391-6.75,1.861c0.225-1.002,0.204-1.135-0.064-0.397c-0.258,0.425-0.404,0.882-0.436,1.37
			c-0.181,1.157-0.016,2.177,0.375,3.277c0.732,2.059,1.481,4.052,1.792,6.25c2.25-0.62,4.5-1.241,6.75-1.861
			c-0.51-2.006-1.116-3.982-1.042-6.069C391.995,412.316,384.994,412.332,384.833,416.833L384.833,416.833z"/>
	</g>
</g>
<g>
	<g>
		<path fill="#754C24" d="M414.167,444.833c4.514,0,4.514-7,0-7S409.653,444.833,414.167,444.833L414.167,444.833z"/>
	</g>
</g>
<g>
	<g>
		<path fill="#754C24" d="M399.125,438.069c-0.654,2.557,0.124,4.425,1.734,6.405c0.237-1.832,0.472-3.664,0.708-5.497
			c-0.605,0.132-1.216,0.236-1.831,0.314c-2.163,0.322-3.282,3.422-2.091,5.142c4.086,5.901,12.015,3.675,17.755,6.256
			c0.278-2.133,0.558-4.265,0.836-6.397c-2.224,0.421-4.477,0.52-6.736,0.541c-4.512,0.043-4.516,7.043,0,7
			c2.889-0.027,5.756-0.254,8.598-0.791c2.856-0.54,3.557-5.174,0.836-6.397c-2.651-1.191-5.413-1.604-8.268-2.041
			c-1.461-0.224-6.036-0.345-6.977-1.703c-0.697,1.714-1.395,3.428-2.092,5.142c1.291-0.192,2.313-0.489,3.503-1.02
			c2.243-1.001,1.983-3.929,0.708-5.497c0.022,0.135,0.044,0.27,0.066,0.405C406.995,435.555,400.243,433.699,399.125,438.069
			L399.125,438.069z"/>
	</g>
</g>
<g>
	<g>
		<path fill="#754C24" d="M472.525,429.642c-0.126-0.156-1.013,1.135-1.692,1.801c-1.078,1.055-2.318,1.949-3.474,2.916
			c1.949,1.135,3.899,2.27,5.85,3.405c1.326-3.414,4.013-6.198,5.927-9.283c0.924-1.488,1.552-3.177,1.906-4.883
			c0.347-1.668-0.512-3.974,0.147-5.498c-2.133-0.278-4.265-0.558-6.397-0.836c0.111,0.333,0.222,0.666,0.333,1
			c1.419,4.261,8.181,2.434,6.75-1.861c-0.111-0.333-0.222-0.666-0.333-1c-0.851-2.554-5.096-3.849-6.397-0.836
			c-1.487,3.444-0.263,7.098-2.053,10.382c-2.081,3.817-5.032,6.836-6.633,10.954c-1.396,3.594,3.459,5.407,5.85,3.405
			c4.637-3.881,9.988-8.603,5.166-14.615C474.65,421.17,469.73,426.157,472.525,429.642L472.525,429.642z"/>
	</g>
</g>
<g>
	<g>
		<path fill="#754C24" d="M469.525,435.358c-3.705,3.226-7.602,6.051-11.889,8.449c-2.16,1.208-4.323,1.973-6.733,2.459
			c-1.882,0.38-5.004,1.809-6.806,1.358c-4.381-1.096-6.238,5.655-1.861,6.75c2.838,0.71,4.784,0.08,7.528-0.833
			c2.773-0.923,5.608-0.916,8.336-2.187c6.038-2.814,11.366-6.687,16.374-11.048C477.885,437.338,472.913,432.408,469.525,435.358
			L469.525,435.358z"/>
	</g>
</g>
<g>
	<g>
		<path fill="#754C24" d="M443.767,447.978c-1.771-1.03-3.744-1.302-5.767-1.311c-4.001-0.018-4.702,5.768-0.931,6.875
			c0.062,0.018,0.406,0.253,0.498,0.313c0.278-2.133,0.558-4.265,0.836-6.397c-2.23,0.683-4.626-0.208-6.903-0.291
			c-4.516-0.165-4.5,6.836,0,7c3.034,0.11,5.749,0.964,8.765,0.041c2.969-0.909,3.385-4.741,0.836-6.397
			c-0.692-0.449-1.365-0.782-2.17-1.019c-0.311,2.292-0.62,4.583-0.931,6.875c0.77,0.004,1.556-0.039,2.233,0.355
			C444.143,456.297,447.665,450.247,443.767,447.978L443.767,447.978z"/>
	</g>
</g>
<g>
	<g>
		<path fill="#754C24" d="M416.334,453.667c4.514,0,4.514-7,0-7S411.82,453.667,416.334,453.667L416.334,453.667z"/>
	</g>
</g>
<g>
	<g>
		<path fill="#754C24" d="M416.834,454.5c1.897,0.014,3.719,0.08,5.597-0.292c1.872-0.371,2.922-2.569,2.444-4.306
			c-0.533-1.938-2.436-2.814-4.306-2.444c-1.051,0.208,0.694-0.033-0.388,0.054c-0.337,0.027-0.677,0.027-1.015,0.03
			c-0.777,0.006-1.556-0.036-2.333-0.042c-1.908-0.014-3.5,1.603-3.5,3.5C413.334,452.918,414.926,454.486,416.834,454.5
			L416.834,454.5z"/>
	</g>
</g>
<g>
	<g>
		<path fill="#754C24" d="M423.334,454c4.514,0,4.514-7,0-7S418.82,454,423.334,454L423.334,454z"/>
	</g>
</g>
<g>
	<g>
		<path fill="#754C24" d="M425.834,454.167c4.514,0,4.514-7,0-7S421.32,454.167,425.834,454.167L425.834,454.167z"/>
	</g>
</g>
<g>
	<g>
		<path fill="#754C24" d="M426.667,454.833c4.514,0,4.514-7,0-7S422.153,454.833,426.667,454.833L426.667,454.833z"/>
	</g>
</g>
<g>
	<g>
		<path fill="#754C24" d="M422.667,454.667c4.514,0,4.514-7,0-7S418.153,454.667,422.667,454.667L422.667,454.667z"/>
	</g>
</g>
<line fill="none" stroke="#000000" x1="408.917" y1="362.054" x2="408.917" y2="454.974"/>
<line fill="none" stroke="#000000" x1="436.75" y1="355.79" x2="436.75" y2="454.974"/>
<line fill="none" stroke="#000000" x1="466.395" y1="368.641" x2="469.834" y2="455.11"/>
</svg>
