<?xml version="1.0" encoding="utf-8"?>
<!-- Generator: Adobe Illustrator 14.0.0, SVG Export Plug-In . SVG Version: 6.00 Build 43363)  -->
<!DOCTYPE svg PUBLIC "-//W3C//DTD SVG 1.1//EN" "http://www.w3.org/Graphics/SVG/1.1/DTD/svg11.dtd">
<svg version="1.1" id="Layer_1" xmlns="http://www.w3.org/2000/svg" xmlns:xlink="http://www.w3.org/1999/xlink" x="0px" y="0px"
	 width="800px" height="600px" viewBox="0 0 800 600" enable-background="new 0 0 800 600" xml:space="preserve">
<g id="XMLID_1_">
	<g>
		<path fill="#009245" d="M421.84,302.14l-6.04,18.21c-1.71-1.71-3.59-3.25-5.62-4.58L421.84,302.14z"/>
		<path fill="#009245" d="M363.24,305.59l9.24,9.19c-3.67,2.16-6.92,4.96-9.59,8.239l0.15-17.229L363.24,305.59z"/>
		<path fill="#009245" d="M421.85,400.13c2.82,5.88,4.41,12.55,4.41,19.62c0,15.46-7.609,29.02-19.05,36.66
			c-6.21,4.149-13.56,6.54-21.43,6.54c-22.35,0-40.47-19.34-40.47-43.2c0-20.04,12.8-36.9,30.14-41.77
			c4.58,2.14,9.7,3.34,15.09,3.34c3.65,0,7.18-0.551,10.5-1.58C410.06,383.65,417.45,390.94,421.85,400.13z"/>
		<path fill="#009245" d="M410.18,315.77c2.03,1.33,3.91,2.87,5.62,4.58c6.46,6.471,10.46,15.391,10.46,25.261
			c0,16.069-10.609,29.659-25.22,34.13c-4.71-2.05-9.86-3.181-15.26-3.181c-3.57,0-7.03,0.49-10.33,1.421
			c-12.18-5.681-20.62-18.04-20.62-32.37c0-8.58,3.02-16.44,8.06-22.591c2.67-3.279,5.92-6.079,9.59-8.239
			c5.3-3.101,11.47-4.891,18.06-4.891C397.79,309.89,404.55,312.05,410.18,315.77z"/>
		<path fill="#009245" d="M401.04,379.74c-3.32,1.029-6.85,1.58-10.5,1.58c-5.39,0-10.51-1.2-15.09-3.34
			c3.3-0.931,6.76-1.421,10.33-1.421C391.18,376.56,396.33,377.69,401.04,379.74z"/>
	</g>
	<g>
		<path fill="none" stroke="#000000" d="M415.8,320.35c6.46,6.471,10.46,15.391,10.46,25.261c0,16.069-10.609,29.659-25.22,34.13
			c-3.32,1.029-6.85,1.58-10.5,1.58c-5.39,0-10.51-1.2-15.09-3.34c-12.18-5.681-20.62-18.04-20.62-32.37
			c0-8.58,3.02-16.44,8.06-22.591c2.67-3.279,5.92-6.079,9.59-8.239c5.3-3.101,11.47-4.891,18.06-4.891
			c7.25,0,14.01,2.16,19.64,5.88C412.21,317.1,414.09,318.64,415.8,320.35z"/>
		<polyline fill="none" stroke="#000000" points="362.85,327.49 362.89,323.02 363.04,305.79 		"/>
		<polyline fill="none" stroke="#000000" points="359.77,302.14 363.24,305.59 372.48,314.78 372.49,314.79 		"/>
		<polyline fill="none" stroke="#000000" points="408.59,317.63 410.18,315.77 421.84,302.14 		"/>
		<polyline fill="none" stroke="#000000" points="421.84,302.14 415.8,320.35 415.22,322.11 		"/>
		<path fill="none" stroke="#000000" d="M362.99,351.39c4.57-0.779,6.46,4.53,9.3,7.29c4.04,3.92,8.09,6.87,13.6,8.521
			c11.58,3.46,20.419-5.03,22.68-16.49"/>
		<path fill="none" stroke="#000000" d="M377.28,330.3c1.45,3.021,2.64,6.32,4.76,8.84"/>
		<path fill="none" stroke="#000000" d="M407.21,330.3c-6.37,0.271-13.39,3.63-19.05,6.12"/>
		<path fill="none" stroke="#000000" d="M375.24,337.78c0.75,1.399,1,3.529,0.68,5.439"/>
		<path fill="none" stroke="#000000" d="M401.09,342.54c-0.3,1.63-0.76,3.229-1.36,4.77"/>
		<path fill="none" stroke="#000000" d="M421.85,400.13c2.82,5.88,4.41,12.55,4.41,19.62c0,15.46-7.609,29.02-19.05,36.66
			c-6.21,4.149-13.56,6.54-21.43,6.54c-22.35,0-40.47-19.34-40.47-43.2c0-20.04,12.8-36.9,30.14-41.77
			c3.3-0.931,6.76-1.421,10.33-1.421c5.4,0,10.55,1.131,15.26,3.181C410.06,383.65,417.45,390.94,421.85,400.13z"/>
		<polyline fill="none" stroke="#000000" points="407.21,456.4 407.21,456.41 426.26,494.25 		"/>
		<line fill="none" stroke="#000000" x1="363.04" y1="456.4" x2="334.42" y2="509.21"/>
		<polyline fill="none" stroke="#000000" points="421.84,400.14 421.85,400.13 473.2,356.15 		"/>
		<polyline fill="none" stroke="#000000" points="464.91,347.31 468.24,350.71 477.61,360.26 483.69,366.46 		"/>
		<line fill="none" stroke="#000000" x1="468.24" y1="350.71" x2="488.84" y2="340.5"/>
		<line fill="none" stroke="#000000" x1="488.84" y1="340.5" x2="478.54" y2="359.34"/>
	</g>
</g>
</svg>
