<?xml version="1.0" encoding="utf-8"?>
<!-- Generator: Adobe Illustrator 14.0.0, SVG Export Plug-In . SVG Version: 6.00 Build 43363)  -->
<!DOCTYPE svg PUBLIC "-//W3C//DTD SVG 1.1//EN" "http://www.w3.org/Graphics/SVG/1.1/DTD/svg11.dtd">
<svg version="1.1" id="Layer_1" xmlns="http://www.w3.org/2000/svg" xmlns:xlink="http://www.w3.org/1999/xlink" x="0px" y="0px"
	 width="800px" height="600px" viewBox="0 0 800 600" enable-background="new 0 0 800 600" xml:space="preserve">
<circle fill="#FFFFFF" stroke="#000000" cx="261.633" cy="206.49" r="31.973"/>
<line fill="none" stroke="#000000" x1="261.633" y1="236.084" x2="261.633" y2="338.12"/>
<line fill="none" stroke="#000000" x1="261.633" y1="264.993" x2="192.925" y2="241.864"/>
<line fill="none" stroke="#000000" x1="261.633" y1="264.993" x2="276.599" y2="320.096"/>
<line fill="none" stroke="#000000" x1="261.633" y1="338.12" x2="207.211" y2="410.571"/>
<line fill="none" stroke="#000000" x1="261.633" y1="341.184" x2="297.687" y2="415.333"/>
<line fill="none" stroke="#000000" x1="192.925" y1="152.749" x2="192.925" y2="358.871"/>
<line fill="none" stroke="#000000" x1="142.585" y1="147.306" x2="239.184" y2="156.149"/>
<line fill="none" stroke="#000000" x1="142.585" y1="147.306" x2="142.585" y2="93.564"/>
<line fill="none" stroke="#000000" x1="192.925" y1="152.749" x2="190.884" y2="93.564"/>
<line fill="none" stroke="#000000" x1="239.184" y1="156.149" x2="239.184" y2="98.327"/>
<line fill="none" stroke="#000000" x1="245.306" y1="192.204" x2="252.109" y2="198.327"/>
<line fill="none" stroke="#000000" x1="269.116" y1="198.327" x2="276.599" y2="192.204"/>
<path fill="none" stroke="#000000" d="M249.388,205.81c0,1.814,0,3.628,0,5.442"/>
<path fill="none" stroke="#000000" d="M275.918,203.769c0,1.814,0,3.628,0,5.442"/>
</svg>
