<?xml version="1.0" encoding="utf-8"?>
<!-- Generator: Adobe Illustrator 14.0.0, SVG Export Plug-In . SVG Version: 6.00 Build 43363)  -->
<!DOCTYPE svg PUBLIC "-//W3C//DTD SVG 1.1//EN" "http://www.w3.org/Graphics/SVG/1.1/DTD/svg11.dtd">
<svg version="1.1" id="Layer_1" xmlns="http://www.w3.org/2000/svg" xmlns:xlink="http://www.w3.org/1999/xlink" x="0px" y="0px"
	 width="800px" height="600px" viewBox="0 0 800 600" enable-background="new 0 0 800 600" xml:space="preserve">
<ellipse fill="#FFFFFF" stroke="#000000" cx="373.537" cy="162.252" rx="73.809" ry="58.843"/>
<line fill="none" stroke="#000000" x1="373.537" y1="221.095" x2="383.401" y2="418.374"/>
<line fill="none" stroke="#000000" x1="383.401" y1="418.374" x2="324.898" y2="491.844"/>
<line fill="none" stroke="#000000" x1="383.401" y1="418.374" x2="418.775" y2="491.844"/>
<line fill="none" stroke="#000000" x1="377.482" y1="300" x2="513.333" y2="265.313"/>
<path fill="none" stroke="#000000" d="M437.823,218.374c14.61-4.959,36.521,4.631,49.755,11.295
	c7.876,3.966,12.961,10.18,18.459,17.143c9.475,11.999,9.396,20.602,10.713,35.657c1.262,14.425-1.001,27.727-9.029,39.474
	c-7.631,11.165-18.228,17.874-27.04,27.725"/>
<path fill="none" stroke="#000000" d="M354.83,128.578c2.938-0.255,6.074-0.053,8.843,0.68"/>
<path fill="none" stroke="#000000" d="M384.082,127.218c0.222-2.656,3.457-3.477,6.123-4.762"/>
<path fill="none" stroke="#000000" d="M361.633,137.422c-0.269,1.246-0.055,2.428,0.68,3.401"/>
<path fill="none" stroke="#000000" d="M390.884,131.979c-0.851,1.506-0.23,3.723,1.361,5.442"/>
<path fill="none" stroke="#000000" d="M365.034,178.918c9.989,4.051,25.757-3.081,36.734-2.721"/>
</svg>
