<?xml version="1.0" encoding="utf-8"?>
<!-- Generator: Adobe Illustrator 14.0.0, SVG Export Plug-In . SVG Version: 6.00 Build 43363)  -->
<!DOCTYPE svg PUBLIC "-//W3C//DTD SVG 1.1//EN" "http://www.w3.org/Graphics/SVG/1.1/DTD/svg11.dtd">
<svg version="1.1" id="Layer_1" xmlns="http://www.w3.org/2000/svg" xmlns:xlink="http://www.w3.org/1999/xlink" x="0px" y="0px"
	 width="800px" height="600px" viewBox="0 0 800 600" enable-background="new 0 0 800 600" xml:space="preserve">
<g id="XMLID_1_">
	<g>
		<rect x="80.679" y="228.26" fill="#754C24" width="79.226" height="371.74"/>
	</g>
	<g>
		<rect x="80.679" y="228.26" fill="none" stroke="#000000" width="79.226" height="371.74"/>
	</g>
</g>
<g id="XMLID_2_" opacity="0.7">
	<g>
		<polygon fill="#754C24" points="120.292,162.27 160.39,228.26 80.195,228.26 		"/>
	</g>
	<g>
		<polygon fill="none" stroke="#000000" stroke-width="0.5" stroke-linecap="round" stroke-linejoin="round" points="80.195,228.26 
			120.292,162.27 160.39,228.26 		"/>
	</g>
</g>
<g id="XMLID_4_">
	<g>
		<rect x="160.389" y="228.26" fill="#754C24" width="79.226" height="371.74"/>
	</g>
	<g>
		<rect x="160.389" y="228.26" fill="none" stroke="#000000" width="79.226" height="371.74"/>
	</g>
</g>
<g id="XMLID_3_" opacity="0.7">
	<g>
		<polygon fill="#754C24" points="200.002,162.27 240.1,228.26 159.905,228.26 		"/>
	</g>
	<g>
		<polygon fill="none" stroke="#000000" stroke-width="0.5" stroke-linecap="round" stroke-linejoin="round" points="
			159.905,228.26 200.002,162.27 240.1,228.26 		"/>
	</g>
</g>
<g id="XMLID_6_">
	<g>
		<rect x="240.584" y="228.26" fill="#754C24" width="79.226" height="371.74"/>
	</g>
	<g>
		<rect x="240.584" y="228.26" fill="none" stroke="#000000" width="79.226" height="371.74"/>
	</g>
</g>
<g id="XMLID_5_" opacity="0.7">
	<g>
		<polygon fill="#754C24" points="280.197,162.27 320.294,228.26 240.1,228.26 		"/>
	</g>
	<g>
		<polygon fill="none" stroke="#000000" stroke-width="0.5" stroke-linecap="round" stroke-linejoin="round" points="240.1,228.26 
			280.197,162.27 320.294,228.26 		"/>
	</g>
</g>
<g id="XMLID_8_">
	<g>
		<rect x="320.294" y="228.26" fill="#754C24" width="79.226" height="371.74"/>
	</g>
	<g>
		<rect x="320.294" y="228.26" fill="none" stroke="#000000" width="79.226" height="371.74"/>
	</g>
</g>
<g id="XMLID_7_" opacity="0.7">
	<g>
		<polygon fill="#754C24" points="359.907,162.27 400.005,228.26 319.81,228.26 		"/>
	</g>
	<g>
		<polygon fill="none" stroke="#000000" stroke-width="0.5" stroke-linecap="round" stroke-linejoin="round" points="319.81,228.26 
			359.907,162.27 400.005,228.26 		"/>
	</g>
</g>
<g id="XMLID_10_">
	<g>
		<rect x="400.489" y="228.26" fill="#754C24" width="79.226" height="371.74"/>
	</g>
	<g>
		<rect x="400.489" y="228.26" fill="none" stroke="#000000" width="79.226" height="371.74"/>
	</g>
</g>
<g id="XMLID_9_" opacity="0.7">
	<g>
		<polygon fill="#754C24" points="440.102,162.27 480.199,228.26 400.004,228.26 		"/>
	</g>
	<g>
		<polygon fill="none" stroke="#000000" stroke-width="0.5" stroke-linecap="round" stroke-linejoin="round" points="
			400.004,228.26 440.102,162.27 480.199,228.26 		"/>
	</g>
</g>
<g id="XMLID_12_">
	<g>
		<rect x="480.684" y="228.26" fill="#754C24" width="79.227" height="371.74"/>
	</g>
	<g>
		<rect x="480.684" y="228.26" fill="none" stroke="#000000" width="79.227" height="371.74"/>
	</g>
</g>
<g id="XMLID_11_" opacity="0.7">
	<g>
		<polygon fill="#754C24" points="520.297,162.27 560.395,228.26 480.199,228.26 		"/>
	</g>
	<g>
		<polygon fill="none" stroke="#000000" stroke-width="0.5" stroke-linecap="round" stroke-linejoin="round" points="
			480.199,228.26 520.297,162.27 560.395,228.26 		"/>
	</g>
</g>
<g id="XMLID_14_">
	<g>
		<rect x="560.396" y="228.26" fill="#754C24" width="79.226" height="371.74"/>
	</g>
	<g>
		<rect x="560.396" y="228.26" fill="none" stroke="#000000" width="79.226" height="371.74"/>
	</g>
</g>
<g id="XMLID_13_" opacity="0.7">
	<g>
		<polygon fill="#754C24" points="600.008,162.27 640.105,228.26 559.91,228.26 		"/>
	</g>
	<g>
		<polygon fill="none" stroke="#000000" stroke-width="0.5" stroke-linecap="round" stroke-linejoin="round" points="559.91,228.26 
			600.008,162.27 640.105,228.26 		"/>
	</g>
</g>
<g id="XMLID_16_">
	<g>
		<rect x="640.591" y="228.26" fill="#754C24" width="79.226" height="371.74"/>
	</g>
	<g>
		<rect x="640.591" y="228.26" fill="none" stroke="#000000" width="79.226" height="371.74"/>
	</g>
</g>
<g id="XMLID_15_" opacity="0.7">
	<g>
		<polygon fill="#754C24" points="680.203,162.27 720.301,228.26 640.105,228.26 		"/>
	</g>
	<g>
		<polygon fill="none" stroke="#000000" stroke-width="0.5" stroke-linecap="round" stroke-linejoin="round" points="
			640.105,228.26 680.203,162.27 720.301,228.26 		"/>
	</g>
</g>
<g id="XMLID_18_">
	<g>
		<rect x="0.484" y="228.26" fill="#754C24" width="79.226" height="371.74"/>
	</g>
	<g>
		<rect x="0.484" y="228.26" fill="none" stroke="#000000" width="79.226" height="371.74"/>
	</g>
</g>
<g id="XMLID_17_" opacity="0.7">
	<g>
		<polygon fill="#754C24" points="40.097,162.27 80.195,228.26 0,228.26 		"/>
	</g>
	<g>
		<polygon fill="none" stroke="#000000" stroke-width="0.5" stroke-linecap="round" stroke-linejoin="round" points="0,228.26 
			40.097,162.27 80.195,228.26 		"/>
	</g>
</g>
<g id="XMLID_20_">
	<g>
		<rect x="720.785" y="228.26" fill="#754C24" width="79.226" height="371.74"/>
	</g>
	<g>
		<rect x="720.785" y="228.26" fill="none" stroke="#000000" width="79.226" height="371.74"/>
	</g>
</g>
<g id="XMLID_19_" opacity="0.7">
	<g>
		<polygon fill="#754C24" points="760.397,162.27 800.495,228.26 720.3,228.26 		"/>
	</g>
	<g>
		<polygon fill="none" stroke="#000000" stroke-width="0.5" stroke-linecap="round" stroke-linejoin="round" points="720.3,228.26 
			760.397,162.27 800.495,228.26 		"/>
	</g>
</g>
</svg>
